<svg xmlns="http://www.w3.org/2000/svg" viewBox="0 0 980 980" fill="none" shape-rendering="auto" width="512" height="512"><metadata xmlns:rdf="http://www.w3.org/1999/02/22-rdf-syntax-ns#" xmlns:xsi="http://www.w3.org/2001/XMLSchema-instance" xmlns:dc="http://purl.org/dc/elements/1.1/" xmlns:dcterms="http://purl.org/dc/terms/"><rdf:RDF><rdf:Description><dc:title>Lorelei</dc:title><dc:creator>Lisa Wischofsky</dc:creator><dc:source xsi:type="dcterms:URI">https://www.figma.com/community/file/1198749693280469639</dc:source><dcterms:license xsi:type="dcterms:URI">https://creativecommons.org/publicdomain/zero/1.0/</dcterms:license><dc:rights>Remix of „Lorelei” (https://www.figma.com/community/file/1198749693280469639) by „Lisa Wischofsky”, licensed under „CC0 1.0” (https://creativecommons.org/publicdomain/zero/1.0/)</dc:rights></rdf:Description></rdf:RDF></metadata><mask id="viewboxMask"><rect width="980" height="980" rx="0" ry="0" x="0" y="0" fill="#fff" /></mask><g mask="url(#viewboxMask)"><g transform="translate(10 -60)"><path fill-rule="evenodd" clip-rule="evenodd" d="M668 255a406 406 0 0 0-207-40c-18 2-36 4-53 11-20-2-39 2-58 9-11 4-21 8-31 14a206 206 0 0 0-79 85l-10 16-15 27c-8 18-14 35-18 54l-7 40-5 32a625 625 0 0 1-31 109l-6 19c-8 26-14 54-15 81-1 22 2 45 11 65 5 10 12 20 21 27 9 6 19 8 30 9l10 14 7 10 7 10c8 9 18 16 28 21h9c3-2 3-6 4-9v-24c15 16 36 29 59 31 12-1 25-2 37-5 2-1 4 0 6 1h2c11 6 24 10 37 9 3 0 6-1 8-3 1-2 1-3-1-5-6-3-10-7-15-12 32-8 65-13 98-11 26 1 52 6 77 12l18 3c9 3 17 5 26 5 21 1 42-6 60-17 19-11 36-24 50-41l-11 22-6 8a332 332 0 0 0-7 13c4 0 6-1 9-3l1-1c14-11 25-26 32-42l8-26c9 16 16 33 20 51l1 19a448 448 0 0 0 1 6c0 2 0 5 2 6h4c4-4 8-10 10-15a214 214 0 0 0 8-118l-1-11-5-29-3-19-5-24a766 766 0 0 1-6-38l-2-12v-2l-5-38v-3l-3-42 1-35v-8c2-16 4-34 0-49-2-10-6-19-11-28-4-9-9-18-17-24l-4-1 6 16 5 12c6 20 7 42 6 63l-4-11v-2l-19-53a1549 1549 0 0 0-42-99l-11-22-1-3c-1-2-2-5-5-5ZM197 532l2-20-4 17-1 3c-9 32-19 63-30 94v2c-10 28-17 57-19 87-2 18 0 38 6 55 4 10 10 21 19 28 6 5 13 7 21 9l-2-4a158 158 0 0 1-21-83c1-30 5-59 10-88l6-27 7-34 6-38v-1Z" fill="#000000"/><path d="M495 231a231 231 0 0 1 219 204c1 10 2 21 0 30-1 4-1 7-4 8-3-10-3-19-4-29a220 220 0 0 0-239-205c-42 4-83 19-117 44l-17 13a221 221 0 0 0-78 164c0 23 7 43 15 64h17c3 1 4 4 2 6l-6 2c-15 1-31 7-42 17-8 9-14 19-16 31-3 15 0 32 8 45 9 15 24 27 40 33 14 5 29 7 43 5 4-1 8-2 11 0v3c-5 5-11 6-18 7-16 3-33-1-47-8a86 86 0 0 1-47-58c-4-18-1-37 9-53 8-12 20-21 34-26-7-14-10-28-12-43-2-18-2-35 0-53 1-13 4-25 8-38a227 227 0 0 1 99-122c41-28 92-43 142-41Z" fill="#000"/><path d="M535 244a220 220 0 0 1 171 200c1 10 1 19 4 29l-2 18v22c-3 4-4 9-4 14-2 8-2 15-2 23v65c0 21-3 42-11 61-4 13-10 24-18 35-10 12-21 22-34 31-11 9-24 17-37 24l-22 14-12 8 9-2c-3 11-3 24-4 36 0 8 1 16 7 22a235 235 0 0 0 81 45c6 7 11 16 13 25 1 9 0 18-4 27-6 10-14 18-23 24-13 10-28 17-43 22a417 417 0 0 1-217 11c-16-3-33-9-48-17-10-5-21-12-28-21-6-6-10-14-11-22-2-10 0-21 5-30 21-13 39-32 49-54 5-11 7-22 8-34 1-16 0-32-1-47-2-20-3-41-8-61 11 12 23 24 37 32 17 11 36 20 55 26 20 7 41 13 63 18l25 3c3 0 6 0 8-2 2-1 1-2 2-3l-17-2c-29-7-58-16-87-27-18-7-36-15-53-27-18-13-33-30-47-47l-11-16-1-1v-3c-3-2-7-1-11 0-14 2-29 0-43-5-16-6-31-18-40-33-8-13-11-30-8-45 2-12 8-22 16-31 11-10 27-16 42-17l6-2c2-2 1-5-2-6h-17c-8-21-15-41-15-64-1-14 2-27 5-41a221 221 0 0 1 73-123l17-13a230 230 0 0 1 185-39Z" fill="#ffffff"/><path d="M708 513c3 3 2 7 3 12v29c0 26 2 54 0 80-3 31-14 63-36 86-25 28-57 51-93 64l2 7v35c1 6 4 10 8 14l26 19 32 20 24 12c2 0 3 1 5 3l-19-5c-19-6-37-14-54-25-9-5-19-12-26-20-6-6-7-14-7-22 1-12 1-25 4-36l-9 2 12-8 22-14c13-7 26-15 37-24 13-9 24-19 34-31a178 178 0 0 0 29-96v-65c0-8 0-15 2-23 0-5 1-10 4-14ZM278 574c5 5 4 14 0 19l-3 7c1 3 5 5 7 6 6 3 12 7 19 9 0 4-3 5-7 5-6-1-13-3-18-6-7-3-13-8-13-16 0-6 5-9 6-14 2-4 0-7-1-11 4-1 7-2 10 1ZM328 667l11 16c14 17 29 34 47 47 17 12 35 20 53 27a714 714 0 0 0 104 29c-1 1 0 2-2 3-2 2-5 2-8 2l-25-3a478 478 0 0 1-118-44c-14-8-26-20-37-32 5 20 6 41 8 61 1 15 2 31 1 47-1 12-3 23-8 34-10 22-28 41-49 54l-14 8c2-4 6-6 9-9 13-11 24-25 34-39 6-10 12-21 14-33 4-19 3-39 3-58l-3-59 2-10c-10-11-19-26-22-41Z" fill="#000"/><path d="M670 463c7 1 14 4 18 10 6 7 7 15 8 24 0 4-1 9-3 12-3 4-9 4-12 0-2-3-2-8-3-12 0-7-3-15-10-18 10 15 11 33 7 50-2 9-6 16-13 22-4 4-11 6-17 4-6-1-10-6-13-11-4-8-6-16-6-25l-5 14c-1 3-2 6-5 9-3-3-3-6-4-10a83 83 0 0 1 34-61c7-5 15-8 24-8ZM455 468c14 0 29 5 40 14 14 10 24 25 28 42v14c-1 1-2 2-4 1a163 163 0 0 0-17-27c1 14-2 28-11 39-6 8-15 14-26 15-11 0-21-7-27-16-8-12-9-27-6-41 2-9 7-17 13-23l-13 5c-6 5-13 9-18 16l-5 6c-3 4-9 4-12 0-3-3-3-8-1-12 6-8 13-16 22-22 11-8 24-11 37-11Z" fill="#000000"/><path d="M659 498c1 7-1 13-3 20l-5 9c-1 2-4 2-5 1l-4-7c-3-6-5-13-4-19 0-3 2-4 5-4 3 1 4 3 5 5 1-2 2-6 4-7 2-2 6-1 7 2ZM475 500c4 0 6 3 7 6 1 8-2 14-4 22 0 4-2 8-6 11-2 1-4 0-5-2l-10-15-3-8c-1-4-1-8 2-12 2-2 5-2 8 0l5 6c1-4 2-7 6-8Z" fill="#fff"/><path d="M496 375c10 1 20 4 27 11 3 3 5 7 6 11-11-5-22-6-33-6-6 1-12 4-17 7-23 12-43 29-66 41l-20 14-11 11c-1-5 1-10 2-14 4-10 11-17 19-24l24-17c13-9 27-19 41-26 9-4 18-8 28-8ZM701 411c-6 3-11 3-17 4-5 1-10 3-14 6-9 7-17 15-24 24-9 10-17 18-29 24l-7 2c-2 1-4 0-6 2-4 5-4 13-9 17-2 0-2-2-2-3v-13c1-5 3-12 7-16s9-4 13-8l15-10 23-18c6-5 13-10 20-13 10-3 21-3 30 2Z" fill="#000000"/><path d="M293 643c3-2 7-1 9 1 3 2 4 6 3 10-2 4-7 7-12 5-3-1-5-5-4-8 0-4 1-7 4-8Z" fill="#000000"/><path d="M607 606c0 3-2 6-4 9-4 6-11 10-18 12-5 1-9-2-13 0-4 0-8 1-12-1-2-1-2-4 0-6 3-4 8-7 12-7 4-1 7-1 10 2l1 7c5-2 7-5 11-8l13-8Z" fill="#000000"/><path fill-rule="evenodd" clip-rule="evenodd" d="M661 646c3 3 6 8 7 12 3 5 4 11 3 17l-4-5-1-2-10-15-1-1v-1c-1-2-2-3-1-5 2-2 4-1 7 0Zm-30 25a40 40 0 0 1 29 13c3 4 7 7 8 10 2 4 2 8-2 10-5 4-13 5-20 5a5207 5207 0 0 1-42 1l-28 3-18 1-10 2-19 1c1-3 2-4 5-5l5-6 4-3c7-7 17-12 26-17l2-1c10-5 21-9 31-11 10-3 19-4 29-3Zm-6 29c-1-7 1-14 4-20-11-1-22 0-32 3l-1 11-1 7 30-1Zm11-19 1 1 4 1c6 2 11 7 15 12l3 3c-6 2-12 2-19 2h-10c4-6 6-12 6-19Zm-48 20c-1-5 0-10 1-15a254 254 0 0 0-43 21c10-3 21-4 31-5l11-1Z" fill="#000000"/><path fill-rule="evenodd" clip-rule="evenodd" d="M669 255a406 406 0 0 0-196-41 247 247 0 0 0-66 12c-14-2-29 0-42 4-26 8-50 24-70 42-33 29-58 65-73 106-8 22-13 45-13 68 0 20 5 40 16 58a74 74 0 0 0 36 30l2 2a741 741 0 0 0-3 53c-2 26-2 53-1 79 2 29 5 60 14 89 5 17 12 34 22 49 14 22 34 39 57 51 15 8 32 15 49 14 3 0 7-1 9-3 1-3-2-4-4-6l-2-1c-14-10-22-24-30-39-14-29-25-60-29-92-4-39-4-79-3-118v-1l1-39 2-61c10-2 19-6 27-11 13-6 24-16 34-26a178 178 0 0 0 55-117l1-22v-3a968 968 0 0 0 150 92 515 515 0 0 0 130 40l3 1 5-1 15-16v-1l2-4c3-25 0-52-8-76-12-39-37-73-69-98v-1c-7-5-13-10-21-13ZM442 373l-6 11-1 4c-12 22-25 43-44 60l-23 16c-6 5-13 8-21 11l-1 6v11l4-2h2c10-4 19-10 27-17 14-11 27-24 37-40 11-15 18-33 23-51l1-3 2-6Z" fill="#000000"/></g><g transform="translate(10 -60)"></g></g></svg>